<?xml version="1.0" encoding="UTF-8"?><svg id="Layer_1" xmlns="http://www.w3.org/2000/svg" viewBox="0 0 399.533 33.126"><path d="M167.157,1.04h29.703c5.632,0,8.407,2.524,8.407,7.615v16.043c0,5.104-2.775,7.615-8.407,7.615h-29.703V1.04ZM198.092,9.808c0-2.307-1.192-3.42-3.588-3.42h-20.226v20.577h20.226c2.396,0,3.588-1.113,3.588-3.421v-13.736Z" fill="#fff"/><path d="M217.177,32.313c-5.645,0-8.407-2.525-8.407-7.615V8.655c0-5.09,2.762-7.615,8.407-7.615h21.201c5.632,0,8.407,2.524,8.407,7.615v16.043c0,5.09-2.776,7.615-8.407,7.615h-21.201ZM219.519,6.388c-2.437,0-3.628,1.113-3.628,3.42v13.736c0,2.267,1.192,3.421,3.628,3.421h16.517c2.437,0,3.628-1.113,3.628-3.421v-13.736c0-2.307-1.191-3.42-3.628-3.42h-16.517Z" fill="#fff"/><path d="M250.3,24.101c0-6.23,4.427-8.28,10.019-8.212h17.167c2.423,0,3.628-1.154,3.628-3.475v-2.687c0-2.307-1.205-3.461-3.628-3.461h-20.064v5.565h-7.121V1.04h29.446c5.632,0,8.407,2.524,8.407,7.615v4.194c0,4.872-2.572,7.397-7.69,7.615l9.22,11.55v.299h-7.893l-9.342-11.85h-9.071c-6.701,0-5.956,3.257-5.956,6.515v5.334h-7.121v-8.212Z" fill="#fff"/><path d="M300.327,32.313h-7.121V1.04h7.121v31.273Z" fill="#fff"/><path d="M334.395,1.04c5.036,0,7.595,2.267,7.595,6.76v24.514h-7.121v-10.859h-13.065l-10.831,10.859h-7.134V7.8c0-4.493,2.518-6.76,7.555-6.76h23.001ZM314.263,21.455l5.334-5.348h15.272v-6.678c0-2.009-1.11-3.04-3.29-3.04h-17.37c-2.139,0-3.236,1.031-3.236,3.04v15.324l3.29-3.298Z" fill="#fff"/><path d="M379.597,1.04h6.322v27.594c0,2.484-1.286,3.679-3.845,3.679h-3.547c-1.408,0-2.559-.462-3.371-1.494l-23.299-24.174v25.667h-6.363V4.718c0-2.484,1.286-3.678,3.845-3.678h3.547c1.408,0,2.559.475,3.371,1.493l23.34,24.269V1.04Z" fill="#fff"/><path d="M6.028,11.527H0v-4.863h17.624v4.863h-6.028v15.162h-5.569v-15.162Z" fill="#fff"/><path d="M19.06,6.664h5.569v7.495h7.147v-7.495h5.569v20.026h-5.569v-7.61h-7.147v7.61h-5.569V6.664Z" fill="#fff"/><path d="M43.691,25.232l-1.073,1.21h-4.044l2.751-3.081c-1.595-1.76-2.531-4.071-2.531-6.629v-.055c0-5.529,4.456-10.013,10.398-10.013,2.036,0,3.906.523,5.447,1.458l1.073-1.21h4.043l-2.723,3.108c1.568,1.733,2.503,4.044,2.503,6.602v.055c0,5.529-4.456,10.013-10.398,10.013-2.008,0-3.879-.523-5.447-1.458ZM51.365,11.891c-.633-.33-1.375-.523-2.228-.523-2.971,0-4.951,2.421-4.951,5.254v.055c0,.963.22,1.871.66,2.668l6.519-7.455ZM54.171,16.732v-.055c0-.963-.22-1.87-.66-2.668l-6.547,7.455c.66.33,1.403.523,2.228.523,2.998,0,4.979-2.421,4.979-5.254Z" fill="#fff"/><path d="M60.827,6.664h9.469c3.061,0,5.178.801,6.523,2.174,1.173,1.144,1.774,2.689,1.774,4.663v.057c0,3.061-1.631,5.092-4.12,6.151l4.778,6.98h-6.408l-4.034-6.065h-2.432v6.065h-5.55V6.664ZM70.038,16.276c1.888,0,2.975-.915,2.975-2.374v-.057c0-1.573-1.144-2.374-3.004-2.374h-3.633v4.806h3.662Z" fill="#fff"/><path d="M80.678,6.664h5.178l8.239,10.585V6.664h5.493v20.026h-4.863l-8.554-10.986v10.986h-5.493V6.664Z" fill="#fff"/><path d="M101.024,6.664h16.107v4.72h-10.614v3.032h9.612v4.377h-9.612v3.176h10.757v4.72h-16.25V6.664Z" fill="#fff"/><rect x="143.54" y=".228" width="1.173" height="32.898" fill="#fff"/><path d="M390.822,5.997V1.897h-1.432v-.854h3.903v.854h-1.436v4.1h-1.036Z" fill="#fff"/><path d="M398.192,5.997v-3.344h-.027l-1.346,3.296h-.652l-1.346-3.296h-.027v3.344h-.924V1.043h1.201l1.408,3.512h.027l1.407-3.512h1.202v4.954h-.924Z" fill="#fff"/></svg>