<?xml version="1.0" encoding="UTF-8"?><svg id="Layer_1" xmlns="http://www.w3.org/2000/svg" viewBox="0 0 600 81.317"><path d="M0,0h77.235C91.88,0,99.095,6.564,99.095,19.8v41.717c0,13.271-7.216,19.801-21.86,19.801H0V0ZM80.438,22.799c0-5.999-3.098-8.893-9.329-8.893H18.516v53.505h52.594c6.23,0,9.329-2.894,9.329-8.895V22.799Z" fill="#fff"/><path d="M130.066,81.317c-14.68,0-21.861-6.566-21.861-19.801V19.8C108.205,6.564,115.386,0,130.066,0h55.127C199.837,0,207.054,6.564,207.054,19.8v41.717c0,13.236-7.217,19.801-21.861,19.801h-55.127ZM136.155,13.906c-6.336,0-9.434,2.894-9.434,8.893v35.717c0,5.895,3.098,8.895,9.434,8.895h42.947c6.338,0,9.434-2.894,9.434-8.895V22.799c0-5.999-3.097-8.893-9.434-8.893h-42.947Z" fill="#fff"/><path d="M216.193,59.964c0-16.2,11.511-21.529,26.051-21.352h44.637c6.301,0,9.434-3,9.434-9.036v-6.988c0-5.999-3.134-8.999-9.434-8.999h-52.17v14.469h-18.517V0h76.566C307.404,0,314.619,6.564,314.619,19.8v10.906c0,12.669-6.688,19.235-19.995,19.8l23.974,30.034v.778h-20.523l-24.29-30.812h-23.586c-17.425,0-15.488,8.47-15.488,16.941v13.871h-18.517v-21.354Z" fill="#fff"/><path d="M346.275,81.317h-18.516V0h18.516v81.317Z" fill="#fff"/><path d="M434.858,0C447.952,0,454.606,5.894,454.606,17.576v63.741h-18.516v-28.236h-33.972l-28.162,28.236h-18.551V17.576C355.405,5.894,361.953,0,375.049,0h59.809ZM382.511,53.082l13.869-13.906h39.71v-17.365c0-5.223-2.886-7.905-8.555-7.905h-45.165c-5.563,0-8.414,2.682-8.414,7.905v39.846l8.555-8.576Z" fill="#fff"/><path d="M552.396,0h16.44v71.752c0,6.458-3.344,9.565-9.998,9.565h-9.223c-3.661,0-6.654-1.201-8.765-3.883l-60.584-62.857v66.741h-16.546V9.564c0-6.458,3.344-9.564,9.998-9.564h9.223c3.661,0,6.654,1.235,8.765,3.882l60.69,63.106V0Z" fill="#fff"/><path d="M583.328,13.905V5.663h-2.878v-1.718h7.848v1.718h-2.885v8.242h-2.086Z" fill="#fff"/><path d="M598.144,13.905v-6.724h-.055l-2.706,6.627h-1.313l-2.706-6.627h-.055v6.724h-1.856V3.945h2.416l2.83,7.061h.055l2.83-7.061h2.416v9.961h-1.856Z" fill="#fff"/></svg>