<?xml version="1.0" encoding="UTF-8"?>
<svg id="Layer_1" xmlns="http://www.w3.org/2000/svg" version="1.1" viewBox="0 0 102.9 17.1">
  <!-- Generator: Adobe Illustrator 29.3.0, SVG Export Plug-In . SVG Version: 2.1.0 Build 146)  -->
  <defs>
    <style>
      .st0 {
        fill: #fff0e1;
      }
    </style>
  </defs>
  <path class="st0" d="M5.7,4.1H.6V0h15v4.1h-5.1v12.9h-4.7V4.1Z"/>
  <path class="st0" d="M17.1,0h4.7v6.4h6.1V0h4.7v17.1h-4.7v-6.5h-6.1v6.5h-4.7V0Z"/>
  <path class="st0" d="M34.2,8.6h0C34.2,3.8,38,0,43.1,0s8.8,3.8,8.8,8.5h0c0,4.8-3.8,8.6-8.9,8.6s-8.8-3.8-8.8-8.5ZM47.3,8.6h0c0-2.4-1.7-4.5-4.2-4.5s-4.2,2-4.2,4.4h0c0,2.4,1.7,4.5,4.2,4.5s4.2-2,4.2-4.4Z"/>
  <path class="st0" d="M53.5,0h8.1c2.6,0,4.4.7,5.6,1.9,1,1,1.5,2.3,1.5,4h0c0,2.7-1.4,4.4-3.5,5.3l4.1,6h-5.5l-3.4-5.2h-2.1v5.2h-4.7V0ZM61.3,8.2c1.6,0,2.5-.8,2.5-2h0c0-1.4-1-2.1-2.6-2.1h-3.1v4.1h3.1Z"/>
  <path class="st0" d="M70.7,0h4.4l7,9V0h4.7v17.1h-4.1l-7.3-9.4v9.4h-4.7V0Z"/>
  <path class="st0" d="M88.4,0h13.7v4h-9.1v2.6h8.2v3.7h-8.2v2.7h9.2v4h-13.9V0Z"/>
  <polygon class="st0" points="37.9 17.1 52.4 0 48.3 0 33.8 17.1 37.9 17.1"/>
</svg>