<?xml version="1.0" encoding="UTF-8"?><svg id="Layer_1" xmlns="http://www.w3.org/2000/svg" viewBox="0 0 100 17.076"><path d="M5.14,4.147H0V0h15.028v4.147h-5.14v12.929h-4.748V4.147Z" fill="#1f0d30"/><path d="M16.253,0h4.748v6.391h6.094V0h4.748v17.076h-4.748v-6.489h-6.094v6.489h-4.748V0Z" fill="#1f0d30"/><path d="M37.255,15.833l-.915,1.032h-3.448l2.346-2.627c-1.36-1.501-2.158-3.471-2.158-5.653v-.047c0-4.715,3.8-8.538,8.866-8.538,1.736,0,3.331.446,4.644,1.243l.915-1.032h3.448l-2.322,2.651c1.337,1.478,2.134,3.448,2.134,5.629v.047c0,4.715-3.8,8.538-8.866,8.538-1.712,0-3.307-.446-4.644-1.243ZM43.799,4.457c-.539-.281-1.173-.446-1.9-.446-2.533,0-4.222,2.064-4.222,4.48v.047c0,.821.188,1.595.563,2.275l5.559-6.357ZM46.192,8.585v-.047c0-.821-.188-1.595-.563-2.275l-5.583,6.357c.563.281,1.196.446,1.9.446,2.557,0,4.246-2.064,4.246-4.48Z" fill="#1f0d30"/><path d="M51.867,0h8.074c2.61,0,4.415.683,5.562,1.854,1,.976,1.513,2.293,1.513,3.976v.049c0,2.61-1.391,4.342-3.513,5.245l4.074,5.952h-5.464l-3.44-5.172h-2.073v5.172h-4.733V0ZM59.722,8.196c1.61,0,2.537-.781,2.537-2.025v-.049c0-1.342-.976-2.025-2.561-2.025h-3.098v4.098h3.122Z" fill="#1f0d30"/><path d="M68.795,0h4.415l7.026,9.026V0h4.684v17.076h-4.147l-7.294-9.367v9.367h-4.684V0Z" fill="#1f0d30"/><path d="M86.144,0h13.734v4.025h-9.05v2.586h8.197v3.732h-8.197v2.708h9.172v4.025h-13.856V0Z" fill="#1f0d30"/></svg>